<svg width="36" height="46" viewBox="0 0 36 46" fill="none" xmlns="http://www.w3.org/2000/svg">
<path d="M2.12903 0.737121C1.41871 1.14344 0.804702 1.47424 0.768584 1.47424C0.729456 1.47424 0.699357 1.49222 0.699357 1.5102C0.699357 1.53177 0.6512 1.57492 0.594013 1.60728C0.491678 1.66481 0.488668 1.6756 0.488668 1.86617C0.488668 1.97764 0.461579 2.17181 0.428471 2.29406C0.371284 2.50981 0.368274 2.62847 0.368274 4.09552C0.368274 5.27132 0.359245 5.67763 0.332156 5.70999C0.311087 5.73516 0.308077 5.75314 0.323126 5.75314C0.341186 5.75314 0.353225 6.43633 0.356235 7.53662C0.359245 8.83467 0.368274 9.32728 0.395363 9.34526C0.419442 9.36324 0.431481 12.7432 0.434491 22.7968L0.44352 36.2232L7.17052 38.2296C10.8696 39.3335 18.2377 41.5305 23.5441 43.1126C28.8504 44.6947 33.2207 45.9928 33.2569 46C33.305 46.0036 33.5909 45.7051 34.4066 44.7918L35.4932 43.5765L35.5082 29.8157C35.5172 22.2467 35.5293 15.1919 35.5383 14.1348C35.5504 12.5886 35.5473 12.2218 35.5172 12.2542C35.4902 12.2794 35.3668 12.2614 35.1019 12.1895C34.8942 12.1319 34.2381 11.9557 33.6421 11.7939C33.0462 11.6321 32.2064 11.4056 31.776 11.2905C30.8189 11.0316 30.8971 11.0532 20.1279 8.14789C9.98172 5.41514 11.2579 5.76393 11.3602 5.75674C11.4054 5.75674 13.112 5.81786 15.1526 5.89697C27.5502 6.3788 31.7459 6.5406 32.4532 6.56218C32.7753 6.57296 33.1244 6.59094 33.2298 6.60173L33.4164 6.61971L33.3953 4.7823L33.3772 2.94848H33.4495C33.4916 2.94848 33.5398 2.93051 33.5609 2.90534C33.615 2.84061 33.606 2.91253 33.5518 2.98444C33.5127 3.03838 33.5067 3.27569 33.5127 4.80747L33.5217 6.57296L34.509 5.47268L35.4962 4.36879L35.4872 2.52419C35.4811 1.32322 35.4872 0.679589 35.5082 0.668802C35.5624 0.640036 35.451 0.578909 35.3818 0.596888C35.3457 0.607675 34.4457 0.600484 33.3803 0.578909C31.4419 0.539356 29.4705 0.499804 25.8918 0.431485C24.8413 0.409911 23.1558 0.377549 22.1445 0.359571C21.1362 0.341592 19.4567 0.309231 18.4123 0.287656C17.3709 0.266082 15.6824 0.233721 14.665 0.215742C11.3181 0.151019 9.04867 0.107871 7.17052 0.0719136C6.1532 0.053935 4.89207 0.028765 4.37137 0.0179779L3.42327 -6.98412e-07L2.12903 0.737121Z" fill="#DAD6D6"/>
</svg>
