<svg width="260" height="46" viewBox="0 0 260 46" fill="none" xmlns="http://www.w3.org/2000/svg">
<path d="M85.8398 33.27C83.6084 33.27 81.6458 32.9205 79.9521 32.2215C78.2583 31.5225 76.941 30.6218 76 29.5195L80.3957 25.7288C81.256 26.5084 82.2238 27.0865 83.2992 27.4628C84.4015 27.8392 85.3694 28.0274 86.2028 28.0274C86.4985 28.0274 86.7674 28.0005 87.0093 27.9468C87.2513 27.893 87.4395 27.8124 87.5739 27.7048C87.7352 27.5704 87.8562 27.436 87.9369 27.3015C88.0444 27.1402 88.0982 26.9655 88.0982 26.7773C88.0982 26.3202 87.8696 25.9707 87.4126 25.7288C87.1706 25.6212 86.7674 25.4868 86.2028 25.3255C85.6651 25.1373 84.9392 24.9357 84.0251 24.7206C82.896 24.4249 81.8878 24.0754 81.0006 23.6721C80.1134 23.2419 79.3606 22.7446 78.7423 22.18C78.1508 21.6154 77.6803 20.9702 77.3308 20.2443C77.0082 19.4915 76.8469 18.6715 76.8469 17.7843C76.8469 16.7089 77.0888 15.7545 77.5728 14.9211C78.0567 14.0876 78.7288 13.3752 79.5891 12.7837C80.4494 12.1654 81.4173 11.7083 82.4927 11.4126C83.5681 11.09 84.6704 10.9287 85.7995 10.9287C87.0631 10.9287 88.246 11.0631 89.3483 11.332C90.4775 11.5739 91.526 11.9369 92.4938 12.4208C93.4886 12.8778 94.3758 13.4424 95.1554 14.1145L91.284 18.3892C90.827 17.9859 90.2893 17.6096 89.6709 17.2601C89.0795 16.9106 88.4611 16.6283 87.8159 16.4132C87.1706 16.1712 86.5657 16.0502 86.0012 16.0502C85.6517 16.0502 85.3559 16.0771 85.114 16.1309C84.872 16.1847 84.6704 16.2653 84.509 16.3729C84.3477 16.4804 84.2268 16.6148 84.1461 16.7761C84.0654 16.9374 84.0251 17.1122 84.0251 17.3004C84.0251 17.5423 84.0923 17.7709 84.2268 17.9859C84.3612 18.201 84.5763 18.3758 84.872 18.5102C85.114 18.6446 85.5172 18.8194 86.0818 19.0345C86.6733 19.2226 87.5201 19.4646 88.6224 19.7603C89.8591 20.1098 90.9345 20.5131 91.8486 20.9702C92.7627 21.4272 93.502 21.9515 94.0666 22.5429C94.4699 23 94.779 23.5108 94.9941 24.0754C95.2092 24.6131 95.3167 25.218 95.3167 25.8901C95.3167 27.315 94.9 28.592 94.0666 29.7212C93.2601 30.8234 92.1443 31.6972 90.7194 32.3424C89.2945 32.9608 87.668 33.27 85.8398 33.27Z" fill="white"/>
<path d="M101.082 42.142L106.244 29.9631L106.324 33.27L96.1214 11.3723H104.509L108.099 19.9217C108.394 20.5938 108.65 21.2659 108.865 21.938C109.107 22.5833 109.282 23.2016 109.389 23.7931L108.542 24.4383C108.65 24.0888 108.811 23.6049 109.026 22.9865C109.241 22.3682 109.483 21.6557 109.752 20.8492L113.019 11.3723H121.447L112.131 32.8667L108.381 42.142H101.082Z" fill="white"/>
<path d="M124.459 32.8667V11.3723H131.476L131.799 15.7276L130.266 16.2115C130.535 15.1899 131.059 14.2893 131.839 13.5096C132.619 12.7031 133.546 12.0713 134.622 11.6142C135.697 11.1572 136.826 10.9287 138.009 10.9287C139.622 10.9287 140.98 11.2647 142.082 11.9369C143.211 12.5821 144.058 13.5634 144.623 14.8808C145.214 16.1712 145.51 17.7574 145.51 19.6394V32.8667H138.009V20.2443C138.009 19.5453 137.902 18.9672 137.686 18.5102C137.471 18.0263 137.149 17.6633 136.719 17.4214C136.288 17.1794 135.778 17.0719 135.186 17.0987C134.729 17.0987 134.299 17.166 133.896 17.3004C133.519 17.4348 133.183 17.6499 132.888 17.9456C132.592 18.2145 132.363 18.5236 132.202 18.8731C132.068 19.2226 132 19.6125 132 20.0426V32.8667H128.25C127.336 32.8667 126.556 32.8667 125.911 32.8667C125.293 32.8667 124.809 32.8667 124.459 32.8667Z" fill="white"/>
<path d="M161.17 33.27C158.885 33.27 156.841 32.786 155.04 31.8182C153.239 30.8503 151.827 29.533 150.806 27.8661C149.784 26.1993 149.273 24.277 149.273 22.0993C149.273 19.9217 149.784 17.9994 150.806 16.3325C151.827 14.6657 153.239 13.3483 155.04 12.3805C156.841 11.4126 158.885 10.9287 161.17 10.9287C163.455 10.9287 165.485 11.4126 167.259 12.3805C169.061 13.3483 170.472 14.6657 171.494 16.3325C172.515 17.9994 173.026 19.9217 173.026 22.0993C173.026 24.277 172.515 26.1993 171.494 27.8661C170.472 29.533 169.061 30.8503 167.259 31.8182C165.485 32.786 163.455 33.27 161.17 33.27ZM161.17 26.9386C161.976 26.9386 162.702 26.737 163.348 26.3337C164.02 25.9035 164.53 25.3255 164.88 24.5996C165.256 23.8468 165.445 23.0134 165.445 22.0993C165.445 21.1315 165.256 20.2846 164.88 19.5587C164.53 18.8328 164.02 18.2682 163.348 17.865C162.702 17.4348 161.976 17.2197 161.17 17.2197C160.336 17.2197 159.597 17.4348 158.952 17.865C158.307 18.2682 157.796 18.8463 157.419 19.599C157.043 20.3249 156.855 21.1584 156.855 22.0993C156.855 23.0134 157.043 23.8468 157.419 24.5996C157.796 25.3255 158.307 25.9035 158.952 26.3337C159.597 26.737 160.336 26.9386 161.17 26.9386Z" fill="white"/>
<path d="M177.113 41.7387V11.3723H184.13L184.493 16.1309L183.041 15.7679C183.202 14.8539 183.646 14.0339 184.372 13.308C185.125 12.5821 186.052 12.0041 187.154 11.5739C188.257 11.1438 189.453 10.9287 190.744 10.9287C192.545 10.9287 194.145 11.4126 195.543 12.3805C196.941 13.3214 198.043 14.6253 198.849 16.2922C199.656 17.9591 200.059 19.8948 200.059 22.0993C200.059 24.2501 199.656 26.1724 198.849 27.8661C198.043 29.533 196.927 30.8503 195.502 31.8182C194.077 32.7592 192.451 33.2296 190.623 33.2296C189.413 33.2296 188.257 33.0146 187.154 32.5844C186.079 32.1274 185.165 31.5225 184.412 30.7697C183.686 29.99 183.216 29.1163 183.001 28.1484L184.694 27.5838V41.7387H177.113ZM188.606 27.0596C189.467 27.0596 190.206 26.8579 190.824 26.4547C191.443 26.0514 191.913 25.4868 192.236 24.7609C192.558 24.0081 192.72 23.1209 192.72 22.0993C192.72 21.0508 192.558 20.1636 192.236 19.4377C191.913 18.685 191.443 18.1069 190.824 17.7037C190.206 17.3004 189.467 17.0987 188.606 17.0987C187.746 17.0987 187.007 17.3004 186.388 17.7037C185.77 18.08 185.299 18.6446 184.977 19.3974C184.654 20.1502 184.493 21.0508 184.493 22.0993C184.493 23.1209 184.654 24.0081 184.977 24.7609C185.299 25.4868 185.77 26.0514 186.388 26.4547C187.007 26.8579 187.746 27.0596 188.606 27.0596Z" fill="white"/>
<path d="M211.508 33.27C209.277 33.27 207.314 32.9205 205.62 32.2215C203.926 31.5225 202.609 30.6218 201.668 29.5195L206.064 25.7288C206.924 26.5084 207.892 27.0865 208.967 27.4628C210.07 27.8392 211.038 28.0274 211.871 28.0274C212.167 28.0274 212.436 28.0005 212.677 27.9468C212.919 27.893 213.108 27.8124 213.242 27.7048C213.403 27.5704 213.524 27.436 213.605 27.3015C213.713 27.1402 213.766 26.9655 213.766 26.7773C213.766 26.3202 213.538 25.9707 213.081 25.7288C212.839 25.6212 212.436 25.4868 211.871 25.3255C211.333 25.1373 210.607 24.9357 209.693 24.7206C208.564 24.4249 207.556 24.0754 206.669 23.6721C205.782 23.2419 205.029 22.7446 204.41 22.18C203.819 21.6154 203.348 20.9702 202.999 20.2443C202.676 19.4915 202.515 18.6715 202.515 17.7843C202.515 16.7089 202.757 15.7545 203.241 14.9211C203.725 14.0876 204.397 13.3752 205.257 12.7837C206.118 12.1654 207.085 11.7083 208.161 11.4126C209.236 11.09 210.339 10.9287 211.468 10.9287C212.731 10.9287 213.914 11.0631 215.016 11.332C216.146 11.5739 217.194 11.9369 218.162 12.4208C219.157 12.8778 220.044 13.4424 220.824 14.1145L216.952 18.3892C216.495 17.9859 215.957 17.6096 215.339 17.2601C214.748 16.9106 214.129 16.6283 213.484 16.4132C212.839 16.1712 212.234 16.0502 211.669 16.0502C211.32 16.0502 211.024 16.0771 210.782 16.1309C210.54 16.1847 210.339 16.2653 210.177 16.3729C210.016 16.4804 209.895 16.6148 209.814 16.7761C209.734 16.9374 209.693 17.1122 209.693 17.3004C209.693 17.5423 209.76 17.7709 209.895 17.9859C210.029 18.201 210.244 18.3758 210.54 18.5102C210.782 18.6446 211.185 18.8194 211.75 19.0345C212.341 19.2226 213.188 19.4646 214.291 19.7603C215.527 20.1098 216.603 20.5131 217.517 20.9702C218.431 21.4272 219.17 21.9515 219.735 22.5429C220.138 23 220.447 23.5108 220.662 24.0754C220.877 24.6131 220.985 25.218 220.985 25.8901C220.985 27.315 220.568 28.592 219.735 29.7212C218.928 30.8234 217.812 31.6972 216.388 32.3424C214.963 32.9608 213.336 33.27 211.508 33.27Z" fill="white"/>
<path d="M224.653 32.8667V11.3723H232.154V32.8667H224.653ZM228.403 7.29923C227.032 7.29923 225.97 6.99006 225.217 6.3717C224.465 5.72647 224.088 4.82583 224.088 3.66978C224.088 2.59439 224.465 1.72063 225.217 1.04851C225.997 0.349503 227.059 0 228.403 0C229.747 0 230.796 0.322618 231.549 0.967855C232.328 1.58621 232.718 2.48685 232.718 3.66978C232.718 4.74517 232.328 5.61893 231.549 6.29105C230.769 6.96317 229.721 7.29923 228.403 7.29923Z" fill="white"/>
<path d="M250.861 32.8667L247.312 26.8579L244.53 22.9462L236.303 11.3723H245.175L248.482 16.9374L251.506 21.0911L259.693 32.8667H250.861ZM235.98 32.8667L244.731 20.3249L248.683 25.0029L244.812 32.8667H235.98ZM250.7 23.9544L246.788 19.2764L250.579 11.3723H259.41L250.7 23.9544Z" fill="white"/>
<rect width="53.0621" height="45.7432" fill="white"/>
<rect x="43.511" y="3.71436" width="6.36746" height="6.36746" rx="2" fill="#212121"/>
<rect x="43.511" y="14.3269" width="6.36746" height="6.36746" rx="2" fill="#212121"/>
<rect x="43.511" y="24.9392" width="6.36746" height="6.36746" rx="2" fill="#212121"/>
<rect x="43.511" y="35.5515" width="6.36746" height="6.36746" rx="2" fill="#212121"/>
<rect x="3.18384" y="3.71436" width="6.36746" height="6.36746" rx="2" fill="#212121"/>
<rect x="3.18384" y="14.3269" width="15.388" height="6.36746" rx="2" fill="#212121"/>
<rect x="3.18384" y="24.9392" width="26.0005" height="6.36746" rx="2" fill="#212121"/>
<rect x="3.18384" y="35.5515" width="33.9598" height="6.36746" rx="2" fill="#212121"/>
</svg>
